<mxfile host="Electron" modified="2023-06-02T17:40:39.485Z" agent="Mozilla/5.0 (Windows NT 10.0; Win64; x64) AppleWebKit/537.36 (KHTML, like Gecko) draw.io/21.2.8 Chrome/112.0.5615.165 Electron/24.2.0 Safari/537.36" etag="1mHxuuEzxFN-T2dvDRw1" version="21.2.8" type="device">
  <diagram name="Page-1" id="_VKsZUqjI1KDM406V_db">
    <mxGraphModel dx="1540" dy="1145" grid="1" gridSize="10" guides="1" tooltips="1" connect="1" arrows="1" fold="1" page="1" pageScale="1" pageWidth="850" pageHeight="1100" math="0" shadow="0">
      <root>
        <mxCell id="0" />
        <mxCell id="1" parent="0" />
        <mxCell id="Q-EsAjGMg-Bfw-G2u1UZ-86" value="" style="rounded=1;whiteSpace=wrap;html=1;movable=1;resizable=1;rotatable=1;deletable=1;editable=1;locked=0;connectable=1;" vertex="1" parent="1">
          <mxGeometry x="860" y="10" width="830" height="1080" as="geometry" />
        </mxCell>
        <mxCell id="Q-EsAjGMg-Bfw-G2u1UZ-106" value="Restaurant Patron" style="shape=umlActor;verticalLabelPosition=bottom;verticalAlign=top;html=1;direction=east;labelBackgroundColor=none;fillColor=#182E3E;strokeColor=#FFFFFF;fontColor=#FFFFFF;rounded=1;" vertex="1" parent="1">
          <mxGeometry x="925" y="480" width="30" height="60" as="geometry" />
        </mxCell>
        <mxCell id="Q-EsAjGMg-Bfw-G2u1UZ-110" value="Restaurant Staff" style="shape=umlActor;verticalLabelPosition=bottom;verticalAlign=top;html=1;labelBackgroundColor=none;fillColor=#182E3E;strokeColor=#FFFFFF;fontColor=#FFFFFF;rounded=1;" vertex="1" parent="1">
          <mxGeometry x="1595" y="590" width="30" height="60" as="geometry" />
        </mxCell>
        <mxCell id="Q-EsAjGMg-Bfw-G2u1UZ-116" value="Restaurant Ordering V2" style="text;align=center;fontStyle=1;verticalAlign=middle;spacingLeft=3;spacingRight=3;strokeColor=none;rotatable=1;points=[[0,0.5],[1,0.5]];portConstraint=eastwest;html=1;fontSize=25;movable=1;resizable=1;deletable=1;editable=1;locked=0;connectable=1;" vertex="1" parent="1">
          <mxGeometry x="1125" y="30" width="300" height="26" as="geometry" />
        </mxCell>
        <mxCell id="Q-EsAjGMg-Bfw-G2u1UZ-117" value="" style="text;strokeColor=#A50040;fillColor=#d80073;align=left;verticalAlign=middle;spacingTop=-1;spacingLeft=4;spacingRight=4;rotatable=1;labelPosition=right;points=[];portConstraint=eastwest;fontColor=#ffffff;movable=1;resizable=1;deletable=1;editable=1;locked=0;connectable=1;" vertex="1" parent="1">
          <mxGeometry x="947.5" y="60" width="655" height="10" as="geometry" />
        </mxCell>
        <mxCell id="Q-EsAjGMg-Bfw-G2u1UZ-118" value="Notes" style="swimlane;fontStyle=1;align=center;verticalAlign=top;childLayout=stackLayout;horizontal=1;startSize=26;horizontalStack=0;resizeParent=1;resizeParentMax=0;resizeLast=0;collapsible=1;marginBottom=0;whiteSpace=wrap;html=1;movable=1;resizable=1;rotatable=1;deletable=1;editable=1;locked=0;connectable=1;" vertex="1" collapsed="1" parent="1">
          <mxGeometry x="955" y="26" width="100" height="30" as="geometry">
            <mxRectangle x="955" y="26" width="582.5" height="208" as="alternateBounds" />
          </mxGeometry>
        </mxCell>
        <mxCell id="Q-EsAjGMg-Bfw-G2u1UZ-119" value="&lt;p&gt;Notes:&amp;nbsp;&lt;/p&gt;&lt;p&gt;&lt;/p&gt;&lt;ul&gt;&lt;li&gt;&lt;br&gt;&lt;/li&gt;&lt;/ul&gt;" style="text;strokeColor=none;fillColor=default;align=left;verticalAlign=top;spacingLeft=4;spacingRight=4;overflow=hidden;rotatable=0;points=[[0,0.5],[1,0.5]];portConstraint=eastwest;whiteSpace=wrap;html=1;" vertex="1" parent="Q-EsAjGMg-Bfw-G2u1UZ-118">
          <mxGeometry y="26" width="582.5" height="174" as="geometry" />
        </mxCell>
        <mxCell id="Q-EsAjGMg-Bfw-G2u1UZ-120" value="" style="line;strokeWidth=1;fillColor=none;align=left;verticalAlign=middle;spacingTop=-1;spacingLeft=3;spacingRight=3;rotatable=0;labelPosition=right;points=[];portConstraint=eastwest;strokeColor=inherit;" vertex="1" parent="Q-EsAjGMg-Bfw-G2u1UZ-118">
          <mxGeometry y="200" width="582.5" height="8" as="geometry" />
        </mxCell>
        <mxCell id="Q-EsAjGMg-Bfw-G2u1UZ-121" value="" style="group;movable=0;resizable=0;rotatable=0;deletable=0;editable=0;locked=1;connectable=0;" vertex="1" connectable="0" parent="1">
          <mxGeometry x="10" y="10" width="830" height="1080" as="geometry" />
        </mxCell>
        <mxCell id="Q-EsAjGMg-Bfw-G2u1UZ-3" value="" style="rounded=1;whiteSpace=wrap;html=1;movable=1;resizable=1;rotatable=1;deletable=1;editable=1;locked=0;connectable=1;" vertex="1" parent="Q-EsAjGMg-Bfw-G2u1UZ-121">
          <mxGeometry width="830" height="1080" as="geometry" />
        </mxCell>
        <mxCell id="RNJ_qfoteNSc5oWdLL_N-144" value="" style="group;fillColor=#182E3E;labelBackgroundColor=none;fontColor=#FFFFFF;rounded=1;" parent="Q-EsAjGMg-Bfw-G2u1UZ-121" vertex="1" connectable="0">
          <mxGeometry x="335" y="110" width="180" height="470" as="geometry" />
        </mxCell>
        <mxCell id="RNJ_qfoteNSc5oWdLL_N-79" value="Cart" style="html=1;whiteSpace=wrap;verticalAlign=top;fillColor=none;container=0;labelBackgroundColor=none;strokeColor=#FFFFFF;fontColor=#FFFFFF;rounded=1;" parent="RNJ_qfoteNSc5oWdLL_N-144" vertex="1">
          <mxGeometry width="180" height="470" as="geometry" />
        </mxCell>
        <mxCell id="RNJ_qfoteNSc5oWdLL_N-143" value="" style="group;fillColor=none;labelBackgroundColor=none;fontColor=#ffffff;strokeColor=#B20000;rounded=1;" parent="RNJ_qfoteNSc5oWdLL_N-144" vertex="1" connectable="0">
          <mxGeometry x="10" y="110" width="160" height="350" as="geometry" />
        </mxCell>
        <mxCell id="RNJ_qfoteNSc5oWdLL_N-111" value="Item" style="html=1;whiteSpace=wrap;verticalAlign=top;fillColor=none;container=0;labelBackgroundColor=none;strokeColor=#FFFFFF;fontColor=#FFFFFF;rounded=1;" parent="RNJ_qfoteNSc5oWdLL_N-143" vertex="1">
          <mxGeometry width="160" height="350" as="geometry" />
        </mxCell>
        <mxCell id="RNJ_qfoteNSc5oWdLL_N-126" value="Add" style="ellipse;whiteSpace=wrap;html=1;labelBackgroundColor=none;fillColor=#182E3E;strokeColor=#FFFFFF;fontColor=#FFFFFF;rounded=1;" parent="RNJ_qfoteNSc5oWdLL_N-143" vertex="1">
          <mxGeometry x="10" y="30" width="140" height="70" as="geometry" />
        </mxCell>
        <mxCell id="RNJ_qfoteNSc5oWdLL_N-127" value="Read" style="ellipse;whiteSpace=wrap;html=1;labelBackgroundColor=none;fillColor=#182E3E;strokeColor=#FFFFFF;fontColor=#FFFFFF;rounded=1;" parent="RNJ_qfoteNSc5oWdLL_N-143" vertex="1">
          <mxGeometry x="10" y="110" width="140" height="70" as="geometry" />
        </mxCell>
        <mxCell id="RNJ_qfoteNSc5oWdLL_N-128" value="Update" style="ellipse;whiteSpace=wrap;html=1;labelBackgroundColor=none;fillColor=#182E3E;strokeColor=#FFFFFF;fontColor=#FFFFFF;rounded=1;" parent="RNJ_qfoteNSc5oWdLL_N-143" vertex="1">
          <mxGeometry x="10" y="190" width="140" height="70" as="geometry" />
        </mxCell>
        <mxCell id="RNJ_qfoteNSc5oWdLL_N-129" value="Delete" style="ellipse;whiteSpace=wrap;html=1;labelBackgroundColor=none;fillColor=#182E3E;strokeColor=#FFFFFF;fontColor=#FFFFFF;rounded=1;" parent="RNJ_qfoteNSc5oWdLL_N-143" vertex="1">
          <mxGeometry x="10" y="270" width="140" height="70" as="geometry" />
        </mxCell>
        <mxCell id="RNJ_qfoteNSc5oWdLL_N-44" value="Submit" style="ellipse;whiteSpace=wrap;html=1;labelBackgroundColor=none;fillColor=#182E3E;strokeColor=#FFFFFF;fontColor=#FFFFFF;rounded=1;" parent="RNJ_qfoteNSc5oWdLL_N-144" vertex="1">
          <mxGeometry x="20" y="30" width="140" height="70" as="geometry" />
        </mxCell>
        <mxCell id="RNJ_qfoteNSc5oWdLL_N-145" value="" style="group;fillColor=#182E3E;labelBackgroundColor=none;fontColor=#FFFFFF;rounded=1;" parent="Q-EsAjGMg-Bfw-G2u1UZ-121" vertex="1" connectable="0">
          <mxGeometry x="335" y="600" width="180" height="360" as="geometry" />
        </mxCell>
        <mxCell id="RNJ_qfoteNSc5oWdLL_N-82" value="Restaurant Menu" style="html=1;whiteSpace=wrap;verticalAlign=top;fillColor=none;labelBackgroundColor=none;strokeColor=#FFFFFF;fontColor=#FFFFFF;rounded=1;" parent="RNJ_qfoteNSc5oWdLL_N-145" vertex="1">
          <mxGeometry width="180" height="360" as="geometry" />
        </mxCell>
        <mxCell id="RNJ_qfoteNSc5oWdLL_N-83" value="Add" style="ellipse;whiteSpace=wrap;html=1;labelBackgroundColor=none;fillColor=#182E3E;strokeColor=#FFFFFF;fontColor=#FFFFFF;rounded=1;" parent="RNJ_qfoteNSc5oWdLL_N-145" vertex="1">
          <mxGeometry x="20" y="40" width="140" height="70" as="geometry" />
        </mxCell>
        <mxCell id="RNJ_qfoteNSc5oWdLL_N-84" value="Read" style="ellipse;whiteSpace=wrap;html=1;labelBackgroundColor=none;fillColor=#182E3E;strokeColor=#FFFFFF;fontColor=#FFFFFF;rounded=1;" parent="RNJ_qfoteNSc5oWdLL_N-145" vertex="1">
          <mxGeometry x="20" y="120" width="140" height="70" as="geometry" />
        </mxCell>
        <mxCell id="RNJ_qfoteNSc5oWdLL_N-86" value="Update" style="ellipse;whiteSpace=wrap;html=1;labelBackgroundColor=none;fillColor=#182E3E;strokeColor=#FFFFFF;fontColor=#FFFFFF;rounded=1;" parent="RNJ_qfoteNSc5oWdLL_N-145" vertex="1">
          <mxGeometry x="20" y="200" width="140" height="70" as="geometry" />
        </mxCell>
        <mxCell id="RNJ_qfoteNSc5oWdLL_N-85" value="Delete" style="ellipse;whiteSpace=wrap;html=1;labelBackgroundColor=none;fillColor=#182E3E;strokeColor=#FFFFFF;fontColor=#FFFFFF;rounded=1;" parent="RNJ_qfoteNSc5oWdLL_N-145" vertex="1">
          <mxGeometry x="20" y="280" width="140" height="70" as="geometry" />
        </mxCell>
        <mxCell id="RNJ_qfoteNSc5oWdLL_N-100" style="rounded=1;orthogonalLoop=1;jettySize=auto;html=1;labelBackgroundColor=none;strokeColor=#23445D;fontColor=default;" parent="Q-EsAjGMg-Bfw-G2u1UZ-121" source="RNJ_qfoteNSc5oWdLL_N-3" target="RNJ_qfoteNSc5oWdLL_N-84" edge="1">
          <mxGeometry relative="1" as="geometry" />
        </mxCell>
        <mxCell id="RNJ_qfoteNSc5oWdLL_N-101" style="rounded=1;orthogonalLoop=1;jettySize=auto;html=1;labelBackgroundColor=none;strokeColor=#23445D;fontColor=default;" parent="Q-EsAjGMg-Bfw-G2u1UZ-121" source="RNJ_qfoteNSc5oWdLL_N-3" target="RNJ_qfoteNSc5oWdLL_N-126" edge="1">
          <mxGeometry relative="1" as="geometry">
            <mxPoint x="391.37797639940845" y="215.69836937445302" as="targetPoint" />
          </mxGeometry>
        </mxCell>
        <mxCell id="RNJ_qfoteNSc5oWdLL_N-103" style="rounded=1;orthogonalLoop=1;jettySize=auto;html=1;labelBackgroundColor=none;strokeColor=#23445D;fontColor=default;" parent="Q-EsAjGMg-Bfw-G2u1UZ-121" source="RNJ_qfoteNSc5oWdLL_N-3" target="RNJ_qfoteNSc5oWdLL_N-128" edge="1">
          <mxGeometry relative="1" as="geometry">
            <mxPoint x="372.9319044176657" y="368.39291250800534" as="targetPoint" />
          </mxGeometry>
        </mxCell>
        <mxCell id="RNJ_qfoteNSc5oWdLL_N-104" style="rounded=1;orthogonalLoop=1;jettySize=auto;html=1;labelBackgroundColor=none;strokeColor=#23445D;fontColor=default;" parent="Q-EsAjGMg-Bfw-G2u1UZ-121" source="RNJ_qfoteNSc5oWdLL_N-3" target="RNJ_qfoteNSc5oWdLL_N-129" edge="1">
          <mxGeometry relative="1" as="geometry">
            <mxPoint x="360.80509606227633" y="438.95541389950495" as="targetPoint" />
          </mxGeometry>
        </mxCell>
        <mxCell id="RNJ_qfoteNSc5oWdLL_N-3" value="Restaurant Patron" style="shape=umlActor;verticalLabelPosition=bottom;verticalAlign=top;html=1;direction=east;labelBackgroundColor=none;fillColor=#182E3E;strokeColor=#FFFFFF;fontColor=#FFFFFF;rounded=1;" parent="Q-EsAjGMg-Bfw-G2u1UZ-121" vertex="1">
          <mxGeometry x="65" y="470" width="30" height="60" as="geometry" />
        </mxCell>
        <mxCell id="RNJ_qfoteNSc5oWdLL_N-96" style="rounded=1;orthogonalLoop=1;jettySize=auto;html=1;labelBackgroundColor=none;strokeColor=#23445D;fontColor=default;" parent="Q-EsAjGMg-Bfw-G2u1UZ-121" source="RNJ_qfoteNSc5oWdLL_N-10" target="RNJ_qfoteNSc5oWdLL_N-83" edge="1">
          <mxGeometry relative="1" as="geometry" />
        </mxCell>
        <mxCell id="RNJ_qfoteNSc5oWdLL_N-97" style="rounded=1;orthogonalLoop=1;jettySize=auto;html=1;labelBackgroundColor=none;strokeColor=#23445D;fontColor=default;" parent="Q-EsAjGMg-Bfw-G2u1UZ-121" source="RNJ_qfoteNSc5oWdLL_N-10" target="RNJ_qfoteNSc5oWdLL_N-84" edge="1">
          <mxGeometry relative="1" as="geometry" />
        </mxCell>
        <mxCell id="RNJ_qfoteNSc5oWdLL_N-10" value="Restaurant Staff" style="shape=umlActor;verticalLabelPosition=bottom;verticalAlign=top;html=1;labelBackgroundColor=none;fillColor=#182E3E;strokeColor=#FFFFFF;fontColor=#FFFFFF;rounded=1;" parent="Q-EsAjGMg-Bfw-G2u1UZ-121" vertex="1">
          <mxGeometry x="735" y="580" width="30" height="60" as="geometry" />
        </mxCell>
        <mxCell id="RNJ_qfoteNSc5oWdLL_N-98" style="rounded=1;orthogonalLoop=1;jettySize=auto;html=1;labelBackgroundColor=none;strokeColor=#23445D;fontColor=default;" parent="Q-EsAjGMg-Bfw-G2u1UZ-121" source="RNJ_qfoteNSc5oWdLL_N-10" target="RNJ_qfoteNSc5oWdLL_N-85" edge="1">
          <mxGeometry relative="1" as="geometry">
            <mxPoint x="777" y="529" as="sourcePoint" />
            <mxPoint x="525" y="661" as="targetPoint" />
          </mxGeometry>
        </mxCell>
        <mxCell id="RNJ_qfoteNSc5oWdLL_N-99" style="rounded=1;orthogonalLoop=1;jettySize=auto;html=1;labelBackgroundColor=none;strokeColor=#23445D;fontColor=default;" parent="Q-EsAjGMg-Bfw-G2u1UZ-121" source="RNJ_qfoteNSc5oWdLL_N-10" target="RNJ_qfoteNSc5oWdLL_N-86" edge="1">
          <mxGeometry relative="1" as="geometry">
            <mxPoint x="797" y="520" as="sourcePoint" />
            <mxPoint x="535" y="724" as="targetPoint" />
          </mxGeometry>
        </mxCell>
        <mxCell id="RNJ_qfoteNSc5oWdLL_N-102" style="rounded=1;orthogonalLoop=1;jettySize=auto;html=1;labelBackgroundColor=none;strokeColor=#23445D;fontColor=default;" parent="Q-EsAjGMg-Bfw-G2u1UZ-121" source="RNJ_qfoteNSc5oWdLL_N-3" target="RNJ_qfoteNSc5oWdLL_N-127" edge="1">
          <mxGeometry relative="1" as="geometry">
            <mxPoint x="125" y="456" as="sourcePoint" />
            <mxPoint x="383.57852289084985" y="293.21462933521843" as="targetPoint" />
          </mxGeometry>
        </mxCell>
        <mxCell id="RNJ_qfoteNSc5oWdLL_N-123" style="rounded=1;orthogonalLoop=1;jettySize=auto;html=1;labelBackgroundColor=none;strokeColor=#23445D;fontColor=default;" parent="Q-EsAjGMg-Bfw-G2u1UZ-121" source="RNJ_qfoteNSc5oWdLL_N-3" target="RNJ_qfoteNSc5oWdLL_N-44" edge="1">
          <mxGeometry relative="1" as="geometry">
            <mxPoint x="144" y="518" as="sourcePoint" />
            <mxPoint x="410" y="460" as="targetPoint" />
          </mxGeometry>
        </mxCell>
        <mxCell id="RNJ_qfoteNSc5oWdLL_N-19" value="Deliver Order" style="ellipse;whiteSpace=wrap;html=1;labelBackgroundColor=none;fillColor=#182E3E;strokeColor=#FFFFFF;fontColor=#FFFFFF;rounded=1;" parent="Q-EsAjGMg-Bfw-G2u1UZ-121" vertex="1">
          <mxGeometry x="575" y="400" width="140" height="70" as="geometry" />
        </mxCell>
        <mxCell id="RNJ_qfoteNSc5oWdLL_N-112" style="rounded=1;orthogonalLoop=1;jettySize=auto;html=1;exitX=0;exitY=0.3333333333333333;exitDx=0;exitDy=0;exitPerimeter=0;labelBackgroundColor=none;strokeColor=#23445D;fontColor=default;" parent="Q-EsAjGMg-Bfw-G2u1UZ-121" source="RNJ_qfoteNSc5oWdLL_N-10" target="RNJ_qfoteNSc5oWdLL_N-19" edge="1">
          <mxGeometry relative="1" as="geometry" />
        </mxCell>
        <mxCell id="Q-EsAjGMg-Bfw-G2u1UZ-6" value="Restaurant Ordering V1" style="text;align=center;fontStyle=1;verticalAlign=middle;spacingLeft=3;spacingRight=3;strokeColor=none;rotatable=1;points=[[0,0.5],[1,0.5]];portConstraint=eastwest;html=1;fontSize=25;movable=1;resizable=1;deletable=1;editable=1;locked=0;connectable=1;" vertex="1" parent="Q-EsAjGMg-Bfw-G2u1UZ-121">
          <mxGeometry x="265" y="20" width="300" height="26" as="geometry" />
        </mxCell>
        <mxCell id="Q-EsAjGMg-Bfw-G2u1UZ-7" value="" style="text;strokeColor=#A50040;fillColor=#d80073;align=left;verticalAlign=middle;spacingTop=-1;spacingLeft=4;spacingRight=4;rotatable=1;labelPosition=right;points=[];portConstraint=eastwest;fontColor=#ffffff;movable=1;resizable=1;deletable=1;editable=1;locked=0;connectable=1;" vertex="1" parent="Q-EsAjGMg-Bfw-G2u1UZ-121">
          <mxGeometry x="87.5" y="50" width="655" height="10" as="geometry" />
        </mxCell>
        <mxCell id="Q-EsAjGMg-Bfw-G2u1UZ-9" value="Notes" style="swimlane;fontStyle=1;align=center;verticalAlign=top;childLayout=stackLayout;horizontal=1;startSize=26;horizontalStack=0;resizeParent=1;resizeParentMax=0;resizeLast=0;collapsible=1;marginBottom=0;whiteSpace=wrap;html=1;movable=1;resizable=1;rotatable=1;deletable=1;editable=1;locked=0;connectable=1;" vertex="1" collapsed="1" parent="Q-EsAjGMg-Bfw-G2u1UZ-121">
          <mxGeometry x="95" y="16" width="100" height="30" as="geometry">
            <mxRectangle x="7.5" width="582.5" height="208" as="alternateBounds" />
          </mxGeometry>
        </mxCell>
        <mxCell id="Q-EsAjGMg-Bfw-G2u1UZ-13" value="&lt;p&gt;Notes:&amp;nbsp;&lt;/p&gt;&lt;p&gt;&lt;/p&gt;&lt;ul&gt;&lt;li&gt;Considering main business items: Cart, Cart Items, and Restaurant Menu&lt;/li&gt;&lt;li&gt;Feels incomplete:&lt;/li&gt;&lt;li&gt;Feels incorrect:&amp;nbsp;&lt;/li&gt;&lt;ul&gt;&lt;li&gt;We&#39;re not adding to &#39;Item&#39;, but an &#39;Item&#39; to a &#39;Cart&#39;;&amp;nbsp;&lt;/li&gt;&lt;/ul&gt;&lt;/ul&gt;" style="text;strokeColor=none;fillColor=default;align=left;verticalAlign=top;spacingLeft=4;spacingRight=4;overflow=hidden;rotatable=0;points=[[0,0.5],[1,0.5]];portConstraint=eastwest;whiteSpace=wrap;html=1;" vertex="1" parent="Q-EsAjGMg-Bfw-G2u1UZ-9">
          <mxGeometry y="26" width="582.5" height="174" as="geometry" />
        </mxCell>
        <mxCell id="Q-EsAjGMg-Bfw-G2u1UZ-11" value="" style="line;strokeWidth=1;fillColor=none;align=left;verticalAlign=middle;spacingTop=-1;spacingLeft=3;spacingRight=3;rotatable=0;labelPosition=right;points=[];portConstraint=eastwest;strokeColor=inherit;" vertex="1" parent="Q-EsAjGMg-Bfw-G2u1UZ-9">
          <mxGeometry y="200" width="582.5" height="8" as="geometry" />
        </mxCell>
        <mxCell id="Q-EsAjGMg-Bfw-G2u1UZ-123" value="" style="sketch=0;outlineConnect=0;fontColor=#232F3E;gradientColor=none;fillColor=#232F3D;strokeColor=none;dashed=0;verticalLabelPosition=bottom;verticalAlign=top;align=center;html=1;fontSize=12;fontStyle=0;aspect=fixed;pointerEvents=1;shape=mxgraph.aws4.folder;" vertex="1" parent="1">
          <mxGeometry x="1230" y="520" width="78" height="71" as="geometry" />
        </mxCell>
      </root>
    </mxGraphModel>
  </diagram>
</mxfile>
